<svg width="507" height="507" xmlns="http://www.w3.org/2000/svg" xmlns:xlink="http://www.w3.org/1999/xlink" xml:space="preserve" overflow="hidden"><g transform="translate(-133 -85)"><path d="M562.894 187.456C558.669 162.634 536.488 143.622 510.609 143.622 507.969 143.622 504.8 144.15 502.159 144.15 489.484 128.306 469.944 118.272 447.762 118.272 415.547 118.272 388.612 139.925 380.162 169.5 350.588 175.309 328.406 201.188 328.406 232.347 328.406 267.731 356.925 296.25 391.781 296.25L391.781 296.25C391.781 296.25 548.106 296.25 550.219 296.25 580.85 296.25 603.559 271.428 603.559 240.797 603.559 215.447 586.131 194.322 562.894 187.456ZM547.05 264.562 390.725 264.562C378.578 263.506 368.016 256.641 362.734 246.078 357.981 234.988 359.037 222.312 366.431 212.278 372.769 203.828 382.275 199.075 392.309 199.075 393.894 199.075 396.006 199.075 397.591 199.603L407.097 201.188 407.097 190.625C407.097 171.612 419.772 155.241 438.256 151.016 441.425 150.487 444.594 149.959 447.762 149.959 447.762 149.959 447.762 149.959 447.762 149.959L447.762 149.959C447.762 149.959 447.762 149.959 447.762 149.959 463.078 149.959 476.809 158.409 483.675 172.141L486.844 178.478 493.709 175.837C496.878 174.781 500.575 174.253 504.272 174.253 511.137 174.253 517.475 176.366 523.284 180.062 531.734 186.4 537.016 196.434 537.016 206.997L537.016 215.447 547.578 215.447C561.309 215.447 572.4 226.537 572.4 240.269 571.872 253.472 560.781 264.562 547.05 264.562Z" fill="#3BECCD"/><path d="M406.569 317.375 186.869 317.375C177.363 317.375 169.969 324.769 169.969 334.275L169.969 485.319C169.969 494.825 177.363 502.219 186.869 502.219 186.869 502.219 186.869 502.219 186.869 502.219L270.312 502.219 270.312 523.344 233.344 523.344 233.344 555.031 360.094 555.031 360.094 523.344 323.125 523.344 323.125 502.219 406.569 502.219C416.075 502.219 423.469 494.825 423.469 485.319L423.469 485.319 423.469 334.275C423.469 324.769 416.075 317.375 406.569 317.375ZM391.781 470.531 201.656 470.531 201.656 349.062 391.781 349.062 391.781 470.531Z" fill="#3BECCD"/><path d="M501.631 317.375C506.913 324.241 509.553 333.219 509.553 341.669 509.553 357.512 500.575 371.772 486.844 379.166L486.844 357.512 448.291 396.594 486.844 434.619 486.844 412.966C526.453 402.403 549.691 361.738 538.6 322.128 538.072 320.544 537.544 318.959 537.016 317.375L501.631 317.375Z" fill="#3BECCD"/><path d="M253.941 296.25C249.716 290.969 246.019 280.406 246.019 271.956 246.019 256.112 254.997 241.853 268.728 234.459L268.728 256.112 307.281 217.031 268.728 179.006 268.728 200.659C229.119 211.222 205.881 251.887 216.972 291.497 217.5 293.081 218.028 294.666 218.556 296.25L253.941 296.25Z" fill="#3BECCD"/></g></svg>